<svg width="17" height="17" viewBox="0 0 17 17" fill="currentColor" xmlns="http://www.w3.org/2000/svg">
<path d="M0.860352 9.16504C0.860352 8.33661 1.55087 7.66504 2.40266 7.66504C3.25446 7.66504 3.94497 8.33661 3.94497 9.16504V15.165C3.94497 15.9935 3.25446 16.665 2.40266 16.665C1.55087 16.665 0.860352 15.9935 0.860352 15.165V9.16504Z" fill="currentColor"/>
<path d="M4.97318 8.99837V14.429C4.97318 15.1865 5.41326 15.879 6.10994 16.2178L6.16119 16.2427C6.73228 16.5205 7.362 16.665 8.0005 16.665H13.5694C14.5496 16.665 15.3936 15.9921 15.5859 15.0573L16.8197 9.05727C17.0742 7.81969 16.1009 6.66504 14.8032 6.66504H11.1424V2.66504C11.1424 1.56047 10.2217 0.665039 9.08601 0.665039C8.51814 0.665039 8.0578 1.11275 8.0578 1.66504V2.33171C8.0578 3.19719 7.76917 4.03932 7.23523 4.73171L5.79574 6.59837C5.26181 7.29076 4.97318 8.13289 4.97318 8.99837Z" fill="currentColor"/>
</svg>
