<svg width="20" height="20" viewBox="0 0 20 20" fill="none" xmlns="http://www.w3.org/2000/svg">
<g clip-path="url(#clip0)">
<path d="M19.6 10.2272C19.6 9.51852 19.5358 8.8358 19.4185 8.18148H10V12.0506H15.3827C15.2712 12.6624 15.0368 13.2452 14.6937 13.7638C14.3505 14.2824 13.9058 14.726 13.3864 15.0679V17.5778H16.6185C18.5086 15.837 19.6 13.2728 19.6 10.2272Z" fill="#4285F4"/>
<path d="M10 20C12.7 20 14.963 19.1049 16.6173 17.5778L13.3864 15.0679C12.4914 15.6679 11.3457 16.0222 10 16.0222C7.39507 16.0222 5.19137 14.2642 4.40495 11.9H1.06421V14.4914C1.89642 16.1478 3.17284 17.5402 4.75084 18.513C6.32884 19.4858 8.14626 20.0006 10 20Z" fill="#34A853"/>
<path d="M4.40494 11.9C4.19899 11.2876 4.0931 10.6461 4.09136 10C4.09136 9.34074 4.20494 8.69999 4.40494 8.09999V5.50864H1.0642C0.363948 6.90224 -0.000498792 8.44036 5.12355e-07 10C5.12355e-07 11.6136 0.38642 13.1407 1.0642 14.4914L4.40494 11.9Z" fill="#FBBC05"/>
<path d="M10 3.97778C11.4691 3.97778 12.7864 4.48148 13.8222 5.47161L16.6914 2.60494C14.9593 0.991359 12.6951 5.95887e-07 10 5.95887e-07C8.14626 -0.000639362 6.32884 0.514199 4.75084 1.48699C3.17284 2.45978 1.89642 3.85219 1.06421 5.50864L4.40495 8.1C5.19137 5.7358 7.39507 3.97654 10 3.97654V3.97778Z" fill="#EA4335"/>
</g>
<defs>
<clipPath id="clip0">
<rect width="20" height="20" fill="white"/>
</clipPath>
</defs>
</svg>
