<svg width="17" height="17" viewBox="0 0 17 17" fill="currentColor" xmlns="http://www.w3.org/2000/svg">
<path d="M16.0537 8.22974C16.0537 9.05816 15.3632 9.72974 14.5114 9.72974C13.6596 9.72974 12.9691 9.05816 12.9691 8.22974V2.22974C12.9691 1.40131 13.6596 0.729737 14.5114 0.729737C15.3632 0.729737 16.0537 1.40131 16.0537 2.22974V8.22974Z" fill="currentColor"/>
<path d="M11.9409 8.3964V2.9658C11.9409 2.20826 11.5008 1.51573 10.8041 1.17695L10.7529 1.15203C10.1818 0.874318 9.55206 0.729737 8.91356 0.729737L3.34467 0.729736C2.36442 0.729736 1.52044 1.40266 1.32819 2.3375L0.0943438 8.3375C-0.160155 9.57509 0.81313 10.7297 2.11082 10.7297H5.77164V14.7297C5.77164 15.8343 6.69233 16.7297 7.82806 16.7297C8.39592 16.7297 8.85626 16.282 8.85626 15.7297V15.0631C8.85626 14.1976 9.14489 13.3555 9.67883 12.6631L11.1183 10.7964C11.6523 10.104 11.9409 9.26188 11.9409 8.3964Z" fill="currentColor"/>
</svg>
