<svg width="24" height="24" viewBox="0 0 24 24" fill="currentColor" xmlns="http://www.w3.org/2000/svg">
<path d="M0 12.75C0 11.5074 1.03577 10.5 2.31347 10.5C3.59116 10.5 4.62693 11.5074 4.62693 12.75V21.75C4.62693 22.9926 3.59116 24 2.31347 24C1.03577 24 0 22.9926 0 21.75V12.75Z" fill="currentColor"/>
<path d="M6.16924 12.5V20.6459C6.16924 21.7822 6.82936 22.821 7.87438 23.3292L7.95125 23.3666C8.80789 23.7831 9.75248 24 10.7102 24H19.0636C20.5339 24 21.7999 22.9906 22.0883 21.5883L23.9391 12.5884C24.3208 10.732 22.8609 9 20.9143 9H15.4231V3C15.4231 1.34315 14.0421 0 12.3385 0C11.4867 0 10.7962 0.671573 10.7962 1.5V2.5C10.7962 3.79822 10.3632 5.06142 9.56232 6.1L7.40309 8.9C6.60219 9.93858 6.16924 11.2018 6.16924 12.5Z" fill="currentColor"/>
</svg>
