<svg width="24" height="24" viewBox="0 0 25 25" fill="currentColor" xmlns="http://www.w3.org/2000/svg">
<path d="M25 11.7188C25 13.0132 23.9211 14.0625 22.5901 14.0625C21.2592 14.0625 20.1803 13.0132 20.1803 11.7188V2.34375C20.1803 1.04933 21.2592 1.37035e-06 22.5901 1.48351e-06C23.9211 1.59667e-06 25 1.04933 25 2.34375V11.7188Z" fill="currentColor"/>
<path d="M18.5737 11.9792V3.49386C18.5737 2.31019 17.8861 1.22812 16.7975 0.698773L16.7174 0.65983C15.8251 0.225908 14.8412 8.24656e-07 13.8435 7.39832e-07L5.14213 0C3.61048 -1.30227e-07 2.29176 1.05144 1.99138 2.51214L0.0634889 11.8871C-0.334165 13.8209 1.18659 15.625 3.21424 15.625H8.93427V21.875C8.93427 23.6009 10.3728 25 12.1474 25C13.0347 25 13.754 24.3004 13.754 23.4375V22.3958C13.754 21.0435 14.205 19.7277 15.0392 18.6458L17.2884 15.7292C18.1227 14.6473 18.5737 13.3315 18.5737 11.9792Z" fill="currentColor"/>
</svg>
